HIERARCHY
ROOT hip
{
  OFFSET -6.43936 95.4739 -0.503092
  CHANNELS 6 Xposition Yposition Zposition Zrotation Xrotation Yrotation
  JOINT abdomen
  {
    OFFSET 0 7.2397 0
    CHANNELS 6 Xposition Yposition Zposition Zrotation Xrotation Yrotation
    JOINT chest
    {
      OFFSET 0 16.546 0
      CHANNELS 6 Xposition Yposition Zposition Zrotation Xrotation Yrotation
      JOINT neck
      {
        OFFSET 0 34.2149 0
        CHANNELS 6 Xposition Yposition Zposition Zrotation Xrotation Yrotation
        JOINT head
        {
          OFFSET 0 6.2923 0
          CHANNELS 6 Xposition Yposition Zposition Zrotation Xrotation Yrotation
          End Site
          {
            OFFSET 0 21.2161 0
          }
        }
      }
      JOINT lCollar
      {
        OFFSET 4.0639 26.6115 -1.1234
        CHANNELS 6 Xposition Yposition Zposition Zrotation Xrotation Yrotation
        JOINT lShldr
        {
          OFFSET 14.1772 0 0
          CHANNELS 6 Xposition Yposition Zposition Zrotation Xrotation Yrotation
          JOINT lForeArm
          {
            OFFSET 26.1234 0 0
            CHANNELS 6 Xposition Yposition Zposition Zrotation Xrotation Yrotation
            JOINT lHand
            {
              OFFSET 27.7188 0 0
              CHANNELS 6 Xposition Yposition Zposition Zrotation Xrotation Yrotation
              JOINT lThumb1
              {
                OFFSET 2.2979 -0.4685 1.8313
                CHANNELS 6 Xposition Yposition Zposition Zrotation Xrotation Yrotation
                JOINT lThumb2
                {
                  OFFSET 5.2953 0 0
                  CHANNELS 6 Xposition Yposition Zposition Zrotation Xrotation Yrotation
                  JOINT lThumb3
                  {
                    OFFSET 3.0181 0 0
                    CHANNELS 6 Xposition Yposition Zposition Zrotation Xrotation Yrotation
                    End Site
                    {
                      OFFSET 2.6294 0 0
                    }
                  }
                }
              }
              JOINT lIndex1
              {
                OFFSET 9.3793 0.2991 2.5924
                CHANNELS 6 Xposition Yposition Zposition Zrotation Xrotation Yrotation
                JOINT lIndex2
                {
                  OFFSET 4.3461 0 0
                  CHANNELS 6 Xposition Yposition Zposition Zrotation Xrotation Yrotation
                  JOINT lIndex3
                  {
                    OFFSET 2.1666 0 0
                    CHANNELS 6 Xposition Yposition Zposition Zrotation Xrotation Yrotation
                    End Site
                    {
                      OFFSET 2.2048 0 0
                    }
                  }
                }
              }
              JOINT lMid1
              {
                OFFSET 9.4769 0.8376 0.2947
                CHANNELS 6 Xposition Yposition Zposition Zrotation Xrotation Yrotation
                JOINT lMid2
                {
                  OFFSET 4.772 0 0
                  CHANNELS 6 Xposition Yposition Zposition Zrotation Xrotation Yrotation
                  JOINT lMid3
                  {
                    OFFSET 2.8722 0 0
                    CHANNELS 6 Xposition Yposition Zposition Zrotation Xrotation Yrotation
                    End Site
                    {
                      OFFSET 2.0959 0 0
                    }
                  }
                }
              }
              JOINT lRing1
              {
                OFFSET 8.6586 1.0176 -1.7016
                CHANNELS 6 Xposition Yposition Zposition Zrotation Xrotation Yrotation
                JOINT lRing2
                {
                  OFFSET 4.5461 0 0
                  CHANNELS 6 Xposition Yposition Zposition Zrotation Xrotation Yrotation
                  JOINT lRing3
                  {
                    OFFSET 2.506 0 0
                    CHANNELS 6 Xposition Yposition Zposition Zrotation Xrotation Yrotation
                    End Site
                    {
                      OFFSET 2.2023 0 0
                    }
                  }
                }
              }
              JOINT lPinky1
              {
                OFFSET 7.6901 0.6618 -3.9096
                CHANNELS 6 Xposition Yposition Zposition Zrotation Xrotation Yrotation
                JOINT lPinky2
                {
                  OFFSET 3.2119 0 0
                  CHANNELS 6 Xposition Yposition Zposition Zrotation Xrotation Yrotation
                  JOINT lPinky3
                  {
                    OFFSET 1.924 0 0
                    CHANNELS 6 Xposition Yposition Zposition Zrotation Xrotation Yrotation
                    End Site
                    {
                      OFFSET 1.7829 0 0
                    }
                  }
                }
              }
            }
          }
        }
      }
      JOINT rCollar
      {
        OFFSET -4.0677 26.6109 -1.1234
        CHANNELS 6 Xposition Yposition Zposition Zrotation Xrotation Yrotation
        JOINT rShldr
        {
          OFFSET -14.1772 0 0
          CHANNELS 6 Xposition Yposition Zposition Zrotation Xrotation Yrotation
          JOINT rForeArm
          {
            OFFSET -26.1234 0 0
            CHANNELS 6 Xposition Yposition Zposition Zrotation Xrotation Yrotation
            JOINT rHand
            {
              OFFSET -27.7188 0 0
              CHANNELS 6 Xposition Yposition Zposition Zrotation Xrotation Yrotation
              JOINT rThumb1
              {
                OFFSET -2.2979 -0.4684 1.8313
                CHANNELS 6 Xposition Yposition Zposition Zrotation Xrotation Yrotation
                JOINT rThumb2
                {
                  OFFSET -5.2953 0 0
                  CHANNELS 6 Xposition Yposition Zposition Zrotation Xrotation Yrotation
                  JOINT rThumb3
                  {
                    OFFSET -3.0181 0 0
                    CHANNELS 6 Xposition Yposition Zposition Zrotation Xrotation Yrotation
                    End Site
                    {
                      OFFSET -2.6294 0 0
                    }
                  }
                }
              }
              JOINT rIndex1
              {
                OFFSET -9.3793 0.2991 2.5924
                CHANNELS 6 Xposition Yposition Zposition Zrotation Xrotation Yrotation
                JOINT rIndex2
                {
                  OFFSET -4.3461 0 0
                  CHANNELS 6 Xposition Yposition Zposition Zrotation Xrotation Yrotation
                  JOINT rIndex3
                  {
                    OFFSET -2.1666 0 0
                    CHANNELS 6 Xposition Yposition Zposition Zrotation Xrotation Yrotation
                    End Site
                    {
                      OFFSET -2.2048 0 0
                    }
                  }
                }
              }
              JOINT rMid1
              {
                OFFSET -9.4769 0.8376 0.2947
                CHANNELS 6 Xposition Yposition Zposition Zrotation Xrotation Yrotation
                JOINT rMid2
                {
                  OFFSET -4.772 0 0
                  CHANNELS 6 Xposition Yposition Zposition Zrotation Xrotation Yrotation
                  JOINT rMid3
                  {
                    OFFSET -2.8722 0 0
                    CHANNELS 6 Xposition Yposition Zposition Zrotation Xrotation Yrotation
                    End Site
                    {
                      OFFSET -2.0959 0 0
                    }
                  }
                }
              }
              JOINT rRing1
              {
                OFFSET -8.6586 1.0176 -1.7016
                CHANNELS 6 Xposition Yposition Zposition Zrotation Xrotation Yrotation
                JOINT rRing2
                {
                  OFFSET -4.5461 0 0
                  CHANNELS 6 Xposition Yposition Zposition Zrotation Xrotation Yrotation
                  JOINT rRing3
                  {
                    OFFSET -2.506 0 0
                    CHANNELS 6 Xposition Yposition Zposition Zrotation Xrotation Yrotation
                    End Site
                    {
                      OFFSET -2.2023 0 0
                    }
                  }
                }
              }
              JOINT rPinky1
              {
                OFFSET -7.6901 0.6618 -3.9096
                CHANNELS 6 Xposition Yposition Zposition Zrotation Xrotation Yrotation
                JOINT rPinky2
                {
                  OFFSET -3.2119 0 0
                  CHANNELS 6 Xposition Yposition Zposition Zrotation Xrotation Yrotation
                  JOINT rPinky3
                  {
                    OFFSET -1.924 0 0
                    CHANNELS 6 Xposition Yposition Zposition Zrotation Xrotation Yrotation
                    End Site
                    {
                      OFFSET -1.7829 0 0
                    }
                  }
                }
              }
            }
          }
        }
      }
    }
  }
  JOINT lThigh
  {
    OFFSET 8.7379 -0.0029 0.0005
    CHANNELS 6 Xposition Yposition Zposition Zrotation Xrotation Yrotation
    JOINT lShin
    {
      OFFSET 0 -46.6676 0
      CHANNELS 6 Xposition Yposition Zposition Zrotation Xrotation Yrotation
      JOINT lFoot
      {
        OFFSET 0 -40.1476 0
        CHANNELS 6 Xposition Yposition Zposition Zrotation Xrotation Yrotation
        JOINT lToes
        {
          OFFSET 0 -8.8846 14.2294
          CHANNELS 6 Xposition Yposition Zposition Zrotation Xrotation Yrotation
          End Site
          {
            OFFSET 0 0 6.296
          }
        }
      }
    }
  }
  JOINT rThigh
  {
    OFFSET -8.7379 0.0029 -0.0005
    CHANNELS 6 Xposition Yposition Zposition Zrotation Xrotation Yrotation
    JOINT rShin
    {
      OFFSET 0 -46.6676 0
      CHANNELS 6 Xposition Yposition Zposition Zrotation Xrotation Yrotation
      JOINT rFoot
      {
        OFFSET 0 -40.1476 0
        CHANNELS 6 Xposition Yposition Zposition Zrotation Xrotation Yrotation
        JOINT rToes
        {
          OFFSET 0 -8.8846 14.2294
          CHANNELS 6 Xposition Yposition Zposition Zrotation Xrotation Yrotation
          End Site
          {
            OFFSET 0 0 6.296
          }
        }
      }
    }
  }
}
MOTION
Frames:	4
Frame Time:	0.0333333
-0.0279157 96.3236 0.0876373 0.141371 -1.44316 1.04384 2.77556e-17 7.2397 4.44089e-16 -0.620153 -0.106415 -3.07279 0 16.546 4.44089e-16 -1.06496 1.68334 -6.08338 0 34.2149 0 0.755878 32.2542 0.461601 0 6.2923 0 0.671753 -34.3505 10.7165 4.0639 26.6115 -1.1234 0.519433 -0.76097 9.68117 14.1772 2.84217e-14 0 -67.3743 34.9032 -0.32557 26.1234 7.10543e-15 0 -0.320614 0.0619029 -21.8552 27.7188 7.10543e-15 3.9968e-15 -1.52362 0.197996 -6.238 2.2979 -0.4685 1.8313 47.2981 49.5842 -62.6585 5.2953 0 0 -28.652 -15.3141 1.44055 3.0181 -7.10543e-15 0 8.25891 -3.91234 19.3072 9.3793 0.2991 2.5924 1.67667 -1.38721 1.23822 4.3461 0 -1.77636e-15 -19.9031 -0.435828 4.05847 2.1666 0 0 -24.0494 -1.00335 4.30668 9.4769 0.8376 0.2947 2.89993 -4.15818 1.97708 4.772 0 0 -35.5922 -2.7029 8.68615 2.8722 -1.77636e-15 1.77636e-15 -31.7055 -2.10798 9.20525 8.6586 1.0176 -1.7016 -8.55303 2.15633 6.90067 4.5461 0 -1.77636e-15 -34.7769 -1.41281 4.50906 2.506 -8.88178e-16 -1.77636e-15 -28.0367 -0.872694 4.64358 7.6901 0.6618 -3.9096 -2.44995 -8.78727 9.18019 3.2119 0 0 -29.1381 -2.53892 9.74673 1.924 -2.66454e-15 -1.77636e-15 -24.7867 -1.78522 9.91098 -4.0677 26.6109 -1.1234 0.849271 -2.93405 0.686807 -14.1772 0 0 69.4581 13.7564 -9.18062 -26.1234 1.42109e-14 0 0.368104 0.0826397 25.3078 -27.7188 0 0 12.7589 1.71572 8.64604 -2.2979 -0.4684 1.8313 -48.4595 47.5076 64.4168 -5.2953 0 -5.32907e-15 29.793 -15.9378 -2.41539 -3.0181 0 -8.88178e-16 -2.17973 -4.88357 -20.5368 -9.3793 0.2991 2.5924 -2.34324 -1.38382 -0.972506 -4.3461 0 0 19.9862 -0.366914 -3.65063 -2.1666 0 -3.55271e-15 24.1423 -0.903183 -3.86294 -9.4769 0.8376 0.2947 -3.32624 -4.16526 -0.821304 -4.772 0 0 40.7993 -3.23396 -8.9228 -2.8722 3.55271e-15 -1.77636e-15 36.8994 -2.61518 -9.46712 -8.6586 1.0176 -1.7016 8.41802 2.18324 -2.66447 -4.5461 -7.10543e-15 -3.55271e-15 41.7622 -1.70082 -4.45623 -2.506 0 3.55271e-15 35.0208 -1.16492 -4.62506 -7.6901 0.6618 -3.9096 4.08731 -8.9719 -2.07527 -3.2119 0 0 39.745 -4.34182 -11.9741 -1.924 0 -1.77636e-15 35.4205 -3.41479 -12.2668 8.7379 -0.0029 0.0005 8.20557 -2.73502 22.7198 0 -46.6676 0 2.26043 14.1846 -2.16473 0 -40.1476 1.33227e-15 -6.46873 -6.41994 -6.07286 0 -8.8846 14.2294 0.0001 1.98785e-16 -0 -8.7379 0.0029 -0.0005 -5.06252 -6.58021 -18.639 1.77636e-15 -46.6676 0 -6.3735 17.707 -0.412338 0 -40.1476 8.88178e-16 5.21511 -7.17501 -6.72464 0 -8.8846 14.2294 -5.96354e-16 3.97569e-16 -0 
-0.0972038 96.3213 0.0791633 0.162968 -1.46148 1.08601 5.55112e-17 7.2397 0 -0.605603 -0.103536 -3.08408 1.11022e-16 16.546 0 -1.01748 1.68805 -6.11013 4.44089e-16 34.2149 5.55112e-17 0.728496 32.2647 0.481184 -5.55112e-17 6.2923 0 0.660754 -34.2728 10.8198 4.0639 26.6115 -1.1234 0.502064 -0.765009 9.632 14.1772 0 -2.22045e-16 -67.4033 34.9053 -0.270602 26.1234 7.10543e-15 0 -0.32096 0.0620397 -21.8809 27.7188 0 -3.55271e-15 -1.53109 0.203884 -6.24561 2.2979 -0.4685 1.8313 47.2981 49.5842 -62.6585 5.2953 -1.42109e-14 0 -28.652 -15.314 1.44054 3.0181 0 0 8.25891 -3.91235 19.3072 9.3793 0.2991 2.5924 0.85971 -1.40594 1.3883 4.3461 -7.10543e-15 1.77636e-15 -20.7188 -0.494828 4.21791 2.1666 0 0 -24.8644 -1.0721 4.45786 9.4769 0.8376 0.2947 2.08135 -4.174 2.09292 4.772 0 -3.55271e-15 -36.5791 -2.85535 8.89559 2.8722 3.55271e-15 0 -32.6942 -2.24499 9.42297 8.6586 1.0176 -1.7016 -9.39891 2.10882 6.90063 4.5461 0 -1.77636e-15 -35.86 -1.49936 4.63126 2.506 -1.77636e-15 0 -29.1207 -0.944312 4.77507 7.6901 0.6618 -3.9096 -3.33246 -8.8303 9.07294 3.2119 0 -8.88178e-16 -30.3049 -2.74288 10.1044 1.924 1.77636e-15 1.77636e-15 -25.9579 -1.9615 10.2829 -4.0677 26.6109 -1.1234 0.781148 -2.93833 0.708217 -14.1772 0 1.77636e-15 69.4817 13.7519 -9.25822 -26.1234 0 3.55271e-15 0.368578 0.0828696 25.344 -27.7188 0 -1.77636e-15 12.1674 1.60702 8.76321 -2.2979 -0.4684 1.8313 -48.4595 47.5076 64.4168 -5.2953 0 2.66454e-15 29.793 -15.9378 -2.41538 -3.0181 7.10543e-15 2.66454e-15 -2.17974 -4.88358 -20.5368 -9.3793 0.2991 2.5924 -1.5176 -1.39878 -1.10638 -4.3461 0 0 20.8123 -0.420672 -3.79517 -2.1666 3.55271e-15 3.55271e-15 24.9679 -0.965602 -3.99958 -9.4769 0.8376 0.2947 -2.51087 -4.17787 -0.955117 -4.772 -7.10543e-15 -3.55271e-15 41.6149 -3.36288 -9.07028 -2.8722 -1.77636e-15 0 37.7166 -2.733 -9.62191 -8.6586 1.0176 -1.7016 9.24796 2.14372 -2.79266 -4.5461 0 -3.55271e-15 42.6029 -1.76684 -4.52912 -2.506 0 -3.55271e-15 35.862 -1.22193 -4.70519 -7.6901 0.6618 -3.9096 4.89176 -9.00161 -2.20762 -3.2119 7.10543e-15 3.55271e-15 40.5398 -4.51133 -12.1757 -1.924 -7.10543e-15 0 36.2179 -3.56867 -12.4804 8.7379 -0.0029 0.0005 8.21753 -2.68225 22.7102 0 -46.6676 1.77636e-15 2.24732 14.0722 -2.19461 -3.55271e-15 -40.1476 1.77636e-15 -6.4975 -6.3332 -6.06799 3.55271e-15 -8.8846 14.2294 0.0001 -1.98785e-16 -0 -8.7379 0.0029 -0.0005 -5.04732 -6.60484 -18.6392 -1.77636e-15 -46.6676 0 -6.38314 17.8065 -0.447058 3.55271e-15 -40.1476 0 5.18391 -7.2399 -6.72377 -1.77636e-15 -8.8846 14.2294 -5.96354e-16 -3.97569e-16 -0 
-0.169519 96.3091 0.0654147 0.201196 -1.46214 1.13322 5.55112e-17 7.2397 4.44089e-16 -0.603615 -0.10416 -3.09957 -1.11022e-16 16.546 0 -0.992455 1.6864 -6.14386 -4.44089e-16 34.2149 5.55112e-17 0.718087 32.2819 0.496391 0 6.2923 0 0.662589 -34.205 10.9496 4.0639 26.6115 -1.1234 0.523957 -0.771306 9.56798 14.1772 0 4.44089e-16 -67.4611 34.8874 -0.222169 26.1234 7.10543e-15 0 -0.320928 0.0620297 -21.8789 27.7188 -7.10543e-15 2.22045e-15 -1.53373 0.226616 -6.2689 2.2979 -0.4685 1.8313 47.2981 49.5842 -62.6585 5.2953 0 0 -28.6519 -15.3141 1.44055 3.0181 0 0 8.2589 -3.91234 19.3072 9.3793 0.2991 2.5924 0.00380236 -1.42784 1.54526 4.3461 -7.10543e-15 0 -21.5731 -0.559089 4.38404 2.1666 0 -1.77636e-15 -25.7181 -1.14643 4.61521 9.4769 0.8376 0.2947 1.22364 -4.19292 2.21378 4.772 -7.10543e-15 0 -37.6091 -3.01835 9.11142 2.8722 1.77636e-15 -5.32907e-15 -33.726 -2.39201 9.64774 8.6586 1.0176 -1.7016 -10.2851 2.05675 6.89882 4.5461 7.10543e-15 -1.77636e-15 -36.9895 -1.59207 4.75693 2.506 -1.77636e-15 -3.55271e-15 -30.2513 -1.02164 4.91073 7.6901 0.6618 -3.9096 -4.25771 -8.87777 8.95814 3.2119 0 -2.66454e-15 -31.5186 -2.96292 10.4723 1.924 1.33227e-15 5.32907e-15 -27.1761 -2.15307 10.6662 -4.0677 26.6109 -1.1234 0.791837 -2.94186 0.72642 -14.1772 0 0 69.4293 13.7326 -9.30933 -26.1234 0 0 0.368876 0.0830118 25.3648 -27.7188 1.42109e-14 1.77636e-15 11.5706 1.5947 8.89398 -2.2979 -0.4684 1.8313 -48.4595 47.5076 64.4168 -5.2953 0 -1.77636e-15 29.793 -15.9378 -2.41537 -3.0181 0 1.77636e-15 -2.17975 -4.88355 -20.5369 -9.3793 0.2991 2.5924 -0.624734 -1.41716 -1.25091 -4.3461 0 -3.55271e-15 21.7075 -0.481268 -3.95095 -2.1666 0 -3.55271e-15 25.8626 -1.03549 -4.14666 -9.4769 0.8376 0.2947 -1.63414 -4.19355 -1.09881 -4.772 0 0 42.5062 -3.50617 -9.22936 -2.8722 1.77636e-15 1.77636e-15 38.6096 -2.8643 -9.78918 -8.6586 1.0176 -1.7016 10.1403 2.09916 -2.92984 -4.5461 0 0 43.5237 -1.84039 -4.60784 -2.506 0 -1.77636e-15 36.7834 -1.28573 -4.79199 -7.6901 0.6618 -3.9096 5.75675 -9.03561 -2.34947 -3.2119 -7.10543e-15 0 41.4141 -4.70111 -12.3949 -1.924 -3.55271e-15 0 37.0949 -3.74145 -12.713 8.7379 -0.0029 0.0005 8.22465 -2.68481 22.7101 0 -46.6676 -1.77636e-15 2.24737 14.0333 -2.24388 -3.55271e-15 -40.1476 -8.88178e-16 -6.53098 -6.28181 -6.06693 -3.55271e-15 -8.8846 14.2294 0.0001 1.98785e-16 -6.36111e-15 -8.7379 0.0029 -0.0005 -5.0577 -6.69576 -18.6455 0 -46.6676 3.55271e-15 -6.40877 18.0076 -0.476353 3.55271e-15 -40.1476 -8.88178e-16 5.15997 -7.35678 -6.71787 -1.77636e-15 -8.8846 14.2294 5.96354e-16 0 3.18055e-15 
-0.245005 96.2935 0.0485316 0.238845 -1.45975 1.19424 -4.16334e-17 7.2397 -4.44089e-16 -0.601368 -0.102819 -3.11991 1.11022e-16 16.546 0 -0.968557 1.68877 -6.18707 0 34.2149 -1.11022e-16 0.711487 32.3011 0.509975 -1.11022e-16 6.2923 -1.42109e-14 0.65539 -34.1765 11.0813 4.0639 26.6115 -1.1234 0.545528 -0.778331 9.49968 14.1772 0 2.22045e-16 -67.5129 34.8868 -0.188586 26.1234 0 -7.10543e-15 -0.320806 0.0619868 -21.8695 27.7188 0 1.33227e-15 -1.51229 0.226741 -6.30332 2.2979 -0.4685 1.8313 47.2981 49.5842 -62.6585 5.2953 -1.42109e-14 0 -28.6519 -15.3141 1.44054 3.0181 0 1.77636e-15 8.2589 -3.91232 19.3072 9.3793 0.2991 2.5924 -0.892613 -1.45331 1.7093 4.3461 0 -1.77636e-15 -22.4678 -0.629041 4.557 2.1666 0 0 -26.6121 -1.22678 4.77879 9.4769 0.8376 0.2947 0.325276 -4.21529 2.33981 4.772 0 -1.77636e-15 -38.6837 -3.19256 9.33356 2.8722 -4.44089e-15 5.32907e-15 -34.8024 -2.54977 9.87953 8.6586 1.0176 -1.7016 -11.2133 1.99968 6.895 4.5461 0 -2.66454e-15 -38.1672 -1.69138 4.88605 2.506 0 3.55271e-15 -31.4302 -1.10513 5.05058 7.6901 0.6618 -3.9096 -5.22739 -8.93006 8.8354 3.2119 0 -8.88178e-16 -32.7809 -3.20021 10.8504 1.924 -3.9968e-15 3.55271e-15 -28.4431 -2.36112 11.061 -4.0677 26.6109 -1.1234 0.815426 -2.94438 0.735562 -14.1772 0 0 69.3793 13.6414 -9.3492 -26.1234 0 3.55271e-15 0.36878 0.0829614 25.3578 -27.7188 0 0 10.9014 1.54866 9.02652 -2.2979 -0.4684 1.8313 -48.4595 47.5076 64.4168 -5.2953 1.42109e-14 -5.32907e-15 29.793 -15.9378 -2.41537 -3.0181 7.10543e-15 -3.55271e-15 -2.17974 -4.88356 -20.5369 -9.3793 0.2991 2.5924 0.338125 -1.43948 -1.40644 -4.3461 0 0 22.6748 -0.549496 -4.11821 -2.1666 0 3.55271e-15 26.8293 -1.11357 -4.30437 -9.4769 0.8376 0.2947 -0.69347 -4.21281 -1.2527 -4.772 1.42109e-14 0 43.4762 -3.66497 -9.40003 -2.8722 -7.10543e-15 3.55271e-15 39.5814 -3.01016 -9.96894 -8.6586 1.0176 -1.7016 11.0976 2.04896 -3.07624 -4.5461 0 0 44.528 -1.92203 -4.69238 -2.506 -7.10543e-15 0 37.7883 -1.3569 -4.88548 -7.6901 0.6618 -3.9096 6.68481 -9.07443 -2.50108 -3.2119 0 0 42.371 -4.91276 -12.6317 -1.924 0 1.77636e-15 38.0548 -3.93473 -12.9648 8.7379 -0.0029 0.0005 8.23959 -2.71221 22.7096 0 -46.6676 0 2.25496 14.0297 -2.31235 -3.55271e-15 -40.1476 1.77636e-15 -6.56653 -6.2458 -6.06775 0 -8.8846 14.2294 0.0001 0 -3.18055e-15 -8.7379 0.0029 -0.0005 -5.06753 -6.80062 -18.6506 -1.77636e-15 -46.6676 3.55271e-15 -6.43665 18.2341 -0.519432 3.55271e-15 -40.1476 -4.44089e-16 5.1382 -7.48625 -6.71088 0 -8.8846 14.2294 1.98785e-16 3.97569e-16 -0 
